<svg width="24" height="24" viewBox="0 0 24 24" fill="none" xmlns="http://www.w3.org/2000/svg">
<path fill-rule="evenodd" clip-rule="evenodd" d="M15.6068 6.08303C16.2636 5.80095 17 6.2825 17 7.00627V13.9544C17 14.6782 16.2636 15.1598 15.6068 14.8777L13.2812 13.879C12.2681 13.4438 11.1974 13.1646 10.1055 13.0488C9.72156 13.0081 9.33502 12.9876 8.94742 12.9876H7H6.5C5.12123 12.9876 4 11.867 4 10.4804C4 9.0937 5.12123 7.97312 6.5 7.97312H8.94742C10.4374 7.97312 11.9118 7.66985 13.2812 7.08175L15.6068 6.08303ZM19 7.00627C19 4.85244 16.8002 3.39388 14.8176 4.24533L12.492 5.24405C11.3719 5.7251 10.166 5.97312 8.94742 5.97312H6.5C4.01277 5.97312 2 7.99302 2 10.4804C2 12.85 3.82684 14.7954 6.15036 14.9742L6.18022 15.1537L6.87428 19.3267C7.03463 20.2908 7.86784 21 8.84713 21H9C10.1065 21 11 20.1017 11 18.9979V15.2253C11.5094 15.3449 12.0087 15.5091 12.492 15.7167L14.8176 16.7154C16.8002 17.5668 19 16.1083 19 13.9544V13.3293C20.1652 12.9174 21 11.8062 21 10.5C21 9.19376 20.1652 8.08252 19 7.67068V7.00627ZM8.84718 18.9986L8.18006 14.9876H8.94742L9 14.9877V14.9896V18.9979L8.99995 18.9993L8.99939 19H8.84771C8.84757 18.9998 8.84747 18.9997 8.8474 18.9996M8.84733 18.9996C8.84734 18.9996 8.84737 18.9996 8.8474 18.9996C8.84735 18.9995 8.84727 18.9991 8.84718 18.9986M11 9.49998C11 8.94769 10.5523 8.49998 10 8.49998C9.44772 8.49998 9 8.94769 9 9.49998V11.5C9 12.0523 9.44772 12.5 10 12.5C10.5523 12.5 11 12.0523 11 11.5V9.49998Z" fill="#0D0D12"/>
</svg>
