<svg width="24" height="24" viewBox="0 0 24 24" fill="none" xmlns="http://www.w3.org/2000/svg">
<path fill-rule="evenodd" clip-rule="evenodd" d="M4.92893 4.92893C8.83417 1.02369 15.1658 1.02369 19.0711 4.92893C22.9763 8.83417 22.9763 15.1658 19.0711 19.0711C15.1658 22.9763 8.83417 22.9763 4.92893 19.0711C1.02369 15.1658 1.02369 8.83417 4.92893 4.92893ZM9.87868 17.2426L16.2426 17.2426C16.7949 17.2426 17.2426 16.7949 17.2426 16.2426L17.2426 9.87868C17.2426 9.32639 16.7949 8.87868 16.2426 8.87868C15.6904 8.87868 15.2426 9.32639 15.2426 9.87868V13.8284L8.46447 7.05025C8.07394 6.65973 7.44078 6.65973 7.05025 7.05025C6.65973 7.44078 6.65973 8.07394 7.05025 8.46447L13.8284 15.2426H9.87868C9.32639 15.2426 8.87868 15.6904 8.87868 16.2426C8.87868 16.7949 9.32639 17.2426 9.87868 17.2426Z" fill="#0D0D12"/>
</svg>
