<svg width="24" height="24" viewBox="0 0 24 24" fill="none" xmlns="http://www.w3.org/2000/svg">
<path fill-rule="evenodd" clip-rule="evenodd" d="M12 22C6.47715 22 2 17.5228 2 12C2 6.47715 6.47715 2 12 2C17.5228 2 22 6.47715 22 12C22 17.5228 17.5228 22 12 22ZM17.2071 9.79289L12.7071 5.29289C12.3166 4.90237 11.6834 4.90237 11.2929 5.29289L6.79289 9.79289C6.40237 10.1834 6.40237 10.8166 6.79289 11.2071C7.18342 11.5976 7.81658 11.5976 8.20711 11.2071L11 8.41421V18C11 18.5523 11.4477 19 12 19C12.5523 19 13 18.5523 13 18V8.41421L15.7929 11.2071C16.1834 11.5976 16.8166 11.5976 17.2071 11.2071C17.5976 10.8166 17.5976 10.1834 17.2071 9.79289Z" fill="#0D0D12"/>
</svg>
