<svg width="24" height="24" viewBox="0 0 24 24" fill="none" xmlns="http://www.w3.org/2000/svg">
<path fill-rule="evenodd" clip-rule="evenodd" d="M19.0711 19.0711C15.1658 22.9763 8.83417 22.9763 4.92893 19.0711C1.02369 15.1658 1.02369 8.83417 4.92893 4.92893C8.83417 1.02369 15.1658 1.02369 19.0711 4.92893C22.9763 8.83417 22.9763 15.1658 19.0711 19.0711ZM14.1213 6.75736L7.75736 6.75736C7.20507 6.75736 6.75736 7.20507 6.75736 7.75736L6.75736 14.1213C6.75736 14.6736 7.20507 15.1213 7.75736 15.1213C8.30964 15.1213 8.75736 14.6736 8.75736 14.1213V10.1716L15.5355 16.9497C15.9261 17.3403 16.5592 17.3403 16.9497 16.9497C17.3403 16.5592 17.3403 15.9261 16.9497 15.5355L10.1716 8.75736H14.1213C14.6736 8.75736 15.1213 8.30964 15.1213 7.75736C15.1213 7.20507 14.6736 6.75736 14.1213 6.75736Z" fill="#0D0D12"/>
</svg>
