<svg width="24" height="24" viewBox="0 0 24 24" fill="none" xmlns="http://www.w3.org/2000/svg">
<path fill-rule="evenodd" clip-rule="evenodd" d="M12 2C6.47715 2 2 6.47715 2 12C2 17.5228 6.47715 22 12 22C17.5228 22 22 17.5228 22 12C22 6.47715 17.5228 2 12 2ZM17.2071 14.2071L12.7071 18.7071C12.3166 19.0976 11.6834 19.0976 11.2929 18.7071L6.79289 14.2071C6.40237 13.8166 6.40237 13.1834 6.79289 12.7929C7.18342 12.4024 7.81658 12.4024 8.20711 12.7929L11 15.5858V6C11 5.44772 11.4477 5 12 5C12.5523 5 13 5.44772 13 6V15.5858L15.7929 12.7929C16.1834 12.4024 16.8166 12.4024 17.2071 12.7929C17.5976 13.1834 17.5976 13.8166 17.2071 14.2071Z" fill="#0D0D12"/>
</svg>
