<svg width="24" height="24" viewBox="0 0 24 24" fill="none" xmlns="http://www.w3.org/2000/svg">
<path fill-rule="evenodd" clip-rule="evenodd" d="M22 12C22 17.5228 17.5228 22 12 22C6.47715 22 2 17.5228 2 12C2 6.47715 6.47715 2 12 2C17.5228 2 22 6.47715 22 12ZM9.79289 6.79289L5.29289 11.2929C4.90237 11.6834 4.90237 12.3166 5.29289 12.7071L9.79289 17.2071C10.1834 17.5976 10.8166 17.5976 11.2071 17.2071C11.5976 16.8166 11.5976 16.1834 11.2071 15.7929L8.41421 13H18C18.5523 13 19 12.5523 19 12C19 11.4477 18.5523 11 18 11H8.41421L11.2071 8.20711C11.5976 7.81658 11.5976 7.18342 11.2071 6.79289C10.8166 6.40237 10.1834 6.40237 9.79289 6.79289Z" fill="#0D0D12"/>
</svg>
