<svg width="24" height="24" viewBox="0 0 24 24" fill="none" xmlns="http://www.w3.org/2000/svg">
<path fill-rule="evenodd" clip-rule="evenodd" d="M19.0711 4.92893C22.9763 8.83417 22.9763 15.1658 19.0711 19.0711C15.1658 22.9763 8.83418 22.9763 4.92893 19.0711C1.02369 15.1658 1.02369 8.83418 4.92893 4.92893C8.83417 1.02369 15.1658 1.02369 19.0711 4.92893ZM6.75736 9.87868L6.75736 16.2426C6.75736 16.7949 7.20508 17.2426 7.75736 17.2426L14.1213 17.2426C14.6736 17.2426 15.1213 16.7949 15.1213 16.2426C15.1213 15.6904 14.6736 15.2426 14.1213 15.2426H10.1716L16.9497 8.46447C17.3403 8.07394 17.3403 7.44078 16.9497 7.05025C16.5592 6.65973 15.9261 6.65973 15.5355 7.05025L8.75736 13.8284L8.75736 9.87868C8.75736 9.3264 8.30964 8.87868 7.75736 8.87868C7.20507 8.87868 6.75736 9.3264 6.75736 9.87868Z" fill="#0D0D12"/>
</svg>
