<svg width="24" height="24" viewBox="0 0 24 24" fill="none" xmlns="http://www.w3.org/2000/svg">
<path fill-rule="evenodd" clip-rule="evenodd" d="M2 16C2 17.1046 2.89543 18 4 18H20C21.1046 18 22 17.1046 22 16V8C22 6.89543 21.1046 6 20 6H4C2.89543 6 2 6.89543 2 8V16ZM6.5 10C7.05228 10 7.5 10.4477 7.5 11V13C7.5 13.5523 7.05228 14 6.5 14C5.94772 14 5.5 13.5523 5.5 13V11C5.5 10.4477 5.94772 10 6.5 10ZM17.5 10C18.0523 10 18.5 10.4477 18.5 11V13C18.5 13.5523 18.0523 14 17.5 14C16.9477 14 16.5 13.5523 16.5 13V11C16.5 10.4477 16.9477 10 17.5 10ZM12.75 8.5C12.75 8.08579 12.4142 7.75 12 7.75C11.5858 7.75 11.25 8.08579 11.25 8.5V8.95943L10.9466 9.06056C10.232 9.29876 9.75 9.96751 9.75 10.7208V10.7792C9.75 11.5325 10.232 12.2012 10.9466 12.4394L12.5791 12.9836C12.6811 13.0176 12.75 13.1132 12.75 13.2208V13.2792C12.75 13.3868 12.6811 13.4824 12.5791 13.5164L12.3162 13.604C12.111 13.6724 11.889 13.6724 11.6838 13.604L10.7372 13.2885C10.3442 13.1575 9.91947 13.3699 9.78849 13.7628C9.6575 14.1558 9.86987 14.5805 10.2628 14.7115L11.25 15.0406V15.5C11.25 15.9142 11.5858 16.25 12 16.25C12.4142 16.25 12.75 15.9142 12.75 15.5V15.0406L13.0534 14.9394C13.768 14.7012 14.25 14.0325 14.25 13.2792V13.2208C14.25 12.4675 13.768 11.7988 13.0534 11.5606L11.4209 11.0164C11.3189 10.9824 11.25 10.8868 11.25 10.7792V10.7208C11.25 10.6132 11.3189 10.5176 11.4209 10.4836L11.6838 10.396C11.889 10.3276 12.111 10.3276 12.3162 10.396L13.2628 10.7115C13.6558 10.8425 14.0805 10.6301 14.2115 10.2372C14.3425 9.84421 14.1301 9.41947 13.7372 9.28849L12.75 8.95943V8.5Z" fill="#0D0D12"/>
</svg>
