<svg width="24" height="24" viewBox="0 0 24 24" fill="none" xmlns="http://www.w3.org/2000/svg">
<path d="M21 5C21 3.89543 20.1046 3 19 3H18.5C17.3954 3 16.5 3.89543 16.5 5V20.5C16.5 20.7761 16.7239 21 17 21H19C20.1046 21 21 20.1046 21 19V5Z" fill="#0D0D12"/>
<path d="M14.5 13.5C14.5 13.2239 14.2761 13 14 13H10C9.72386 13 9.5 13.2239 9.5 13.5V20.5C9.5 20.7761 9.72386 21 10 21H14C14.2761 21 14.5 20.7761 14.5 20.5V13.5Z" fill="#0D0D12"/>
<path d="M5.5 8C6.60457 8 7.5 8.89543 7.5 10V20.5C7.5 20.7761 7.27614 21 7 21H5C3.89543 21 3 20.1046 3 19V10C3 8.89543 3.89543 8 5 8H5.5Z" fill="#0D0D12"/>
</svg>
