<svg width="24" height="24" viewBox="0 0 24 24" fill="none" xmlns="http://www.w3.org/2000/svg">
<path fill-rule="evenodd" clip-rule="evenodd" d="M3 17C3 18.1046 3.89543 19 5 19H19C20.1046 19 21 18.1046 21 17V11.5C21 11.2239 20.7761 11 20.5 11H3.5C3.22386 11 3 11.2239 3 11.5V17ZM16 15C16 16.1046 15.1046 17 14 17C12.8954 17 12 16.1046 12 15C12 13.8954 12.8954 13 14 13C15.1046 13 16 13.8954 16 15ZM16.4195 16.774C16.3786 16.8297 16.4015 16.9102 16.4681 16.9285C16.6374 16.9751 16.8158 17 17 17C18.1046 17 19 16.1046 19 15C19 13.8954 18.1046 13 17 13C16.8158 13 16.6374 13.0249 16.4681 13.0715C16.4015 13.0898 16.3786 13.1703 16.4195 13.226C16.7844 13.7228 17 14.3362 17 15C17 15.6638 16.7844 16.2772 16.4195 16.774Z" fill="#0D0D12"/>
<path d="M3 8.5C3 8.77614 3.22386 9 3.5 9H20.5C20.7761 9 21 8.77614 21 8.5V7C21 5.89543 20.1046 5 19 5H5C3.89543 5 3 5.89543 3 7V8.5Z" fill="#0D0D12"/>
</svg>
