<svg width="24" height="24" viewBox="0 0 24 24" fill="none" xmlns="http://www.w3.org/2000/svg">
<path fill-rule="evenodd" clip-rule="evenodd" d="M12 22C6.47715 22 2 17.5228 2 12C2 6.47715 6.47715 2 12 2C17.5228 2 22 6.47715 22 12C22 17.5228 17.5228 22 12 22ZM13 6.5C13 5.94772 12.5523 5.5 12 5.5C11.4477 5.5 11 5.94772 11 6.5V7.12433C9.56945 7.48875 8.5 8.61631 8.5 10C8.5 10.9966 8.84944 11.8356 9.60626 12.3762C10.2959 12.8688 11.1733 13 12 13C12.6733 13 13.0459 13.1188 13.2313 13.2512C13.3494 13.3356 13.5 13.4966 13.5 14C13.5 14.3086 13.0979 15 12 15C10.9448 15 10.6667 14.346 10.6667 14.1667C10.6667 13.6144 10.219 13.1667 9.66667 13.1667C9.11438 13.1667 8.66667 13.6144 8.66667 14.1667C8.66667 15.3837 9.59647 16.5062 11 16.8739V17.5C11 18.0523 11.4477 18.5 12 18.5C12.5523 18.5 13 18.0523 13 17.5V16.8757C14.4306 16.5112 15.5 15.3837 15.5 14C15.5 13.0034 15.1506 12.1644 14.3937 11.6238C13.7041 11.1312 12.8267 11 12 11C11.3267 11 10.9541 10.8812 10.7687 10.7488C10.6506 10.6644 10.5 10.5034 10.5 10C10.5 9.69135 10.9021 9 12 9C12.5255 9 12.9273 9.1742 13.1833 9.38141C13.462 9.60701 13.5 9.80396 13.5 9.83333C13.5 10.3856 13.9477 10.8333 14.5 10.8333C15.0523 10.8333 15.5 10.3856 15.5 9.83333C15.5 9.02938 15.038 8.30966 14.4417 7.82692C14.0459 7.50648 13.5563 7.25773 13 7.12001V6.5Z" fill="#0D0D12"/>
</svg>
