<svg width="24" height="24" viewBox="0 0 24 24" fill="none" xmlns="http://www.w3.org/2000/svg">
<path fill-rule="evenodd" clip-rule="evenodd" d="M9.45314 2.08342L6.78883 3.18702C6.23155 3.41785 5.96692 4.05674 6.19775 4.61401C6.38129 5.05713 6.24284 5.56874 5.90395 5.90813C5.56487 6.24771 5.05745 6.38141 4.61409 6.19776C4.05675 5.9669 3.41779 6.23157 3.18693 6.78891L2.08343 9.45299C1.85257 10.0103 2.11724 10.6493 2.67458 10.8801C3.11794 11.0638 3.3822 11.5171 3.38185 11.997C3.38149 12.4766 3.11762 12.9363 2.67451 13.1199C2.11723 13.3507 1.8526 13.9896 2.08343 14.5469L3.18703 17.2112C3.41786 17.7684 4.05674 18.0331 4.61402 17.8022C5.05713 17.6187 5.56872 17.7571 5.90812 18.096C6.24769 18.4351 6.38136 18.9425 6.19772 19.3859C5.96686 19.9432 6.23152 20.5822 6.78887 20.813L9.45297 21.9165C10.0103 22.1474 10.6492 21.8827 10.8801 21.3254C11.0637 20.8821 11.5171 20.6178 11.997 20.6182C12.4766 20.6185 12.9363 20.8824 13.1199 21.3255C13.3507 21.8828 13.9896 22.1474 14.5469 21.9166L17.2112 20.813C17.7685 20.5821 18.0331 19.9433 17.8023 19.386C17.6187 18.9429 17.7572 18.4312 18.0961 18.0918C18.4351 17.7523 18.9426 17.6186 19.3859 17.8022C19.9432 18.033 20.5821 17.7684 20.813 17.2111L21.9165 14.5469C22.1473 13.9896 21.8827 13.3507 21.3254 13.1198C20.8821 12.9362 20.6178 12.4828 20.6182 12.003C20.6185 11.5234 20.8824 11.0637 21.3255 10.8801C21.8828 10.6493 22.1474 10.0104 21.9166 9.45314L20.813 6.78882C20.5821 6.23155 19.9433 5.96691 19.386 6.19774C18.9429 6.38129 18.4312 6.24278 18.0918 5.90389C17.7523 5.56484 17.6185 5.0574 17.8021 4.61407C18.033 4.05676 17.7683 3.41784 17.211 3.187L14.5469 2.08346C13.9895 1.85261 13.3506 2.11727 13.1197 2.67459C12.9361 3.11793 12.4828 3.38219 12.0029 3.38184C11.5233 3.38148 11.0637 3.11762 10.8801 2.6745C10.6493 2.11723 10.0104 1.85259 9.45314 2.08342ZM10.4484 8.2541C8.37957 9.11103 7.39714 11.4828 8.25407 13.5516C9.111 15.6204 11.4828 16.6029 13.5516 15.7459C15.6204 14.889 16.6028 12.5172 15.7459 10.4484C14.889 8.3796 12.5172 7.39717 10.4484 8.2541Z" fill="black"/>
</svg>
