<svg width="24" height="24" viewBox="0 0 24 24" fill="none" xmlns="http://www.w3.org/2000/svg">
<path d="M4.8787 8.90834L10.5858 3.54999C11.3669 2.81667 12.6332 2.81667 13.4142 3.54999L19.1213 8.90834M4.8787 8.90834C4.31629 9.43653 4.00002 10.1531 4.00002 10.9V18.1833C4.00002 19.7389 5.34317 21 7.00002 21H9M4.8787 8.90834C4.87881 8.90824 4.8786 8.90843 4.8787 8.90834ZM4.8787 8.90834L3.00031 10.6722M19.1213 8.90834C19.684 9.43656 20 10.153 20 10.9V18.1833C20 19.7389 18.6569 21 17 21H15M19.1213 8.90834L21 10.6722M9 21H15M9 21V16C9 14.8954 9.89543 14 11 14H13C14.1046 14 15 14.8954 15 16V21" stroke="#0D0D12" stroke-width="2" stroke-linecap="round"/>
</svg>
