<svg width="24" height="24" viewBox="0 0 24 24" fill="none" xmlns="http://www.w3.org/2000/svg">
<path fill-rule="evenodd" clip-rule="evenodd" d="M20 10.9V18.1833C20 19.7389 18.6569 21 17 21H7C5.34315 21 4 19.7389 4 18.1833V10.9C4 10.153 4.31607 9.43656 4.87868 8.90834L10.5858 3.54999C11.3668 2.81667 12.6332 2.81667 13.4142 3.54999L19.1213 8.90834C19.6839 9.43656 20 10.153 20 10.9ZM15 13.5C15 15.1569 13.6569 16.5 12 16.5C10.3431 16.5 9 15.1569 9 13.5C9 11.8431 10.3431 10.5 12 10.5C13.6569 10.5 15 11.8431 15 13.5Z" fill="#0D0D12"/>
</svg>
