<svg width="24" height="24" viewBox="0 0 24 24" fill="none" xmlns="http://www.w3.org/2000/svg">
<path fill-rule="evenodd" clip-rule="evenodd" d="M11.2703 4.27902C11.6665 3.90699 12.3335 3.90699 12.7298 4.27902L18.4369 9.63737L18.4377 9.63816C18.806 9.98433 19 10.4396 19 10.9V18.1833C19 19.1282 18.1649 20 17 20H15H9H7.00003C5.83512 20 5.00003 19.1282 5.00003 18.1833V10.9C5.00003 10.4397 5.19434 9.98402 5.56281 9.63772L5.56319 9.63737L5.56324 9.63732L5.5633 9.63726L11.2703 4.27902ZM14.0987 2.82096L19.8058 8.17931L21.6845 9.94318C22.0871 10.3212 22.1071 10.9541 21.7291 11.3567C21.5323 11.5663 21.2665 11.6722 21 11.6722V18.1833C21 20.3497 19.1488 22 17 22H15H9H7.00003C4.85123 22 3.00003 20.3497 3.00003 18.1833V11.6722C2.7337 11.6721 2.46803 11.5662 2.27133 11.3567C1.89327 10.9541 1.91317 10.3213 2.31577 9.94323L4.19412 8.17941L4.19417 8.17936L4.19423 8.1793L9.90133 2.82096C11.0672 1.72635 12.9329 1.72635 14.0987 2.82096L13.4142 3.54999L14.0987 2.82096ZM11 14C10.4477 14 10 14.4477 10 15V17C10 17.5523 10.4477 18 11 18H13C13.5523 18 14 17.5523 14 17V15C14 14.4477 13.5523 14 13 14H11Z" fill="#0D0D12"/>
</svg>
