<svg width="24" height="24" viewBox="0 0 24 24" fill="none" xmlns="http://www.w3.org/2000/svg">
<path d="M7.5 7C7.5 5.61929 6.38071 4.5 5 4.5C3.61929 4.5 2.5 5.61929 2.5 7C2.5 8.38071 3.61929 9.5 5 9.5C5.40107 9.5 5.78144 9.40518 6.11858 9.23629C6.93665 8.82645 7.5 7.97947 7.5 7Z" fill="#0D0D12"/>
<path d="M17.5 9C17.5 7.61929 16.3807 6.5 15 6.5C13.6193 6.5 12.5 7.61929 12.5 9C12.5 9.6765 12.7694 10.2911 13.2056 10.7407C13.6594 11.2084 14.2961 11.5 15 11.5C15.4011 11.5 15.7814 11.4052 16.1186 11.2363C16.9366 10.8265 17.5 9.97947 17.5 9Z" fill="#0D0D12"/>
<path d="M9 12.5C9.70393 12.5 10.3406 12.7916 10.7944 13.2593C11.2306 13.7089 11.5 14.3235 11.5 15C11.5 16.3807 10.3807 17.5 9 17.5C7.61929 17.5 6.5 16.3807 6.5 15C6.5 14.0205 7.06335 13.1736 7.88142 12.7637C8.21856 12.5948 8.59892 12.5 9 12.5Z" fill="#0D0D12"/>
<path d="M21.5 17C21.5 15.6193 20.3807 14.5 19 14.5C18.5989 14.5 18.2186 14.5948 17.8814 14.7637C17.0634 15.1736 16.5 16.0205 16.5 17C16.5 18.3807 17.6193 19.5 19 19.5C20.3807 19.5 21.5 18.3807 21.5 17Z" fill="#0D0D12"/>
<path d="M6.56669 10.1303C6.26774 10.2801 5.94467 10.3882 5.60599 10.4475L6.60593 12.4473C6.85151 12.2169 7.13017 12.0217 7.43372 11.8696C7.7327 11.7198 8.05581 11.6117 8.39453 11.5524L7.39457 9.55249C7.14896 9.78297 6.87028 9.97823 6.56669 10.1303Z" fill="#0D0D12"/>
<path d="M11.5123 12.5629C11.2685 12.3116 10.9867 12.0965 10.676 11.9269L11.9152 10.6537C12.0697 10.9416 12.2631 11.2052 12.4881 11.437C12.7319 11.6883 13.0139 11.9035 13.3246 12.0731L12.0853 13.3464C11.9308 13.0585 11.7373 12.7948 11.5123 12.5629Z" fill="#0D0D12"/>
<path d="M16.5667 12.1303C16.8703 11.9782 17.149 11.783 17.3946 11.5525L18.3945 13.5524C18.0558 13.6117 17.7327 13.7198 17.4337 13.8696C17.1302 14.0217 16.8515 14.2169 16.6059 14.4473L15.606 12.4475C15.9447 12.3882 16.2677 12.2801 16.5667 12.1303Z" fill="#0D0D12"/>
</svg>
