<svg width="24" height="24" viewBox="0 0 24 24" fill="none" xmlns="http://www.w3.org/2000/svg">
<path d="M16.5 7C16.5 5.61929 17.6193 4.5 19 4.5C20.3807 4.5 21.5 5.61929 21.5 7C21.5 8.38071 20.3807 9.5 19 9.5C18.5989 9.5 18.2186 9.40518 17.8814 9.23629C17.0634 8.82645 16.5 7.97947 16.5 7Z" fill="#0D0D12"/>
<path d="M6.5 9C6.5 7.61929 7.61929 6.5 9 6.5C10.3807 6.5 11.5 7.61929 11.5 9C11.5 9.6765 11.2306 10.2911 10.7944 10.7407C10.3406 11.2084 9.70393 11.5 9 11.5C8.59893 11.5 8.21856 11.4052 7.88142 11.2363C7.06335 10.8265 6.5 9.97947 6.5 9Z" fill="#0D0D12"/>
<path d="M15 12.5C14.2961 12.5 13.6594 12.7916 13.2056 13.2593C12.7694 13.7089 12.5 14.3235 12.5 15C12.5 16.3807 13.6193 17.5 15 17.5C16.3807 17.5 17.5 16.3807 17.5 15C17.5 14.0205 16.9366 13.1736 16.1186 12.7637C15.7814 12.5948 15.4011 12.5 15 12.5Z" fill="#0D0D12"/>
<path d="M2.5 17C2.5 15.6193 3.61929 14.5 5 14.5C5.40107 14.5 5.78144 14.5948 6.11858 14.7637C6.93665 15.1736 7.5 16.0205 7.5 17C7.5 18.3807 6.38071 19.5 5 19.5C3.61929 19.5 2.5 18.3807 2.5 17Z" fill="#0D0D12"/>
<path d="M17.4333 10.1303C17.7323 10.2801 18.0553 10.3882 18.394 10.4475L17.3941 12.4473C17.1485 12.2169 16.8698 12.0217 16.5663 11.8696C16.2673 11.7198 15.9442 11.6117 15.6055 11.5524L16.6054 9.55249C16.851 9.78297 17.1297 9.97823 17.4333 10.1303Z" fill="#0D0D12"/>
<path d="M12.4877 12.5629C12.7315 12.3116 13.0133 12.0965 13.324 11.9269L12.0848 10.6537C11.9303 10.9416 11.7369 11.2052 11.5119 11.437C11.2681 11.6883 10.9861 11.9035 10.6754 12.0731L11.9147 13.3464C12.0692 13.0585 12.2627 12.7948 12.4877 12.5629Z" fill="#0D0D12"/>
<path d="M7.43331 12.1303C7.12972 11.9782 6.85104 11.783 6.60543 11.5525L5.60547 13.5524C5.94419 13.6117 6.2673 13.7198 6.56628 13.8696C6.86983 14.0217 7.14849 14.2169 7.39407 14.4473L8.39401 12.4475C8.05533 12.3882 7.73226 12.2801 7.43331 12.1303Z" fill="#0D0D12"/>
</svg>
