<svg width="24" height="24" viewBox="0 0 24 24" fill="none" xmlns="http://www.w3.org/2000/svg">
<path fill-rule="evenodd" clip-rule="evenodd" d="M8.10339 6.78537C8.41094 5.75199 9.36897 5.00012 10.5 5.00012C11.3487 5.00012 12.099 5.4221 12.5525 6.07222C12.8684 6.5252 13.4918 6.63627 13.9447 6.32031C14.3977 6.00435 14.5088 5.381 14.1928 4.92802C13.3814 3.76466 12.03 3.00012 10.5 3.00012C8.46 3.00012 6.73948 4.35677 6.18648 6.21487C6.02894 6.74421 6.33035 7.30104 6.85968 7.45858C7.38902 7.61611 7.94585 7.31471 8.10339 6.78537ZM4.55465 6.83215C5.01417 6.52579 5.13832 5.90491 4.83195 5.44539C4.52559 4.98588 3.90471 4.86172 3.44519 5.16809C2.32521 5.9148 1.82956 7.33269 2.05338 8.59172C2.21876 9.52205 2.76619 10.3536 3.67551 10.8574C3.24512 11.6417 2.99994 12.5427 2.99994 13.5001C2.99994 15.6387 4.22005 17.4902 5.99994 18.4001V20.0001C5.99994 20.5524 6.44766 21.0001 6.99994 21.0001H10.4999C11.0522 21.0001 11.4999 20.5524 11.4999 20.0001V19.0001H11.9999V20.0001C11.9999 20.5524 12.4477 21.0001 12.9999 21.0001H16.4999C17.0522 21.0001 17.4999 20.5524 17.4999 20.0001V18.6249C18.5538 18.2135 19.4482 17.4872 20.069 16.5626C21.1416 16.5261 21.9999 15.6452 21.9999 14.5637V12.4365C21.9999 11.3551 21.1416 10.4741 20.069 10.4377C19.6558 9.8221 19.1215 9.29485 18.4999 8.88972V6.50012C18.4999 5.94784 18.0522 5.50012 17.4999 5.50012C15.6514 5.50012 14.4438 6.65025 13.4753 8.00012H8.49994C7.17145 8.00012 5.95179 8.47213 5.00161 9.25597C4.3416 9.06138 4.09248 8.63531 4.02251 8.24167C3.92045 7.66755 4.17475 7.08544 4.55465 6.83215ZM14.832 9.55482C15.4452 8.63505 15.964 8.06124 16.4999 7.76094V9.46788C16.4999 9.84753 16.7149 10.1944 17.0549 10.3634C17.7223 10.695 18.2697 11.2342 18.6116 11.8957C18.7833 12.2279 19.126 12.4365 19.4999 12.4365H19.9999V14.5637H19.4999C19.126 14.5637 18.7833 14.7723 18.6116 15.1045C18.1438 16.0094 17.2933 16.6832 16.2787 16.9134C15.8232 17.0168 15.4999 17.4216 15.4999 17.8886V19.0001H13.9999V18.5001C13.9999 17.6717 13.3284 17.0001 12.4999 17.0001H10.9999C10.1715 17.0001 9.49994 17.6717 9.49994 18.5001V19.0001H7.99994V17.7441C7.99994 17.3202 7.73278 16.9425 7.33319 16.8012C5.97245 16.3203 4.99994 15.0225 4.99994 13.5001C4.99994 12.5391 5.38596 11.6701 6.01375 11.0366C6.64912 10.3954 7.52744 10.0001 8.49994 10.0001H13.9999C14.3343 10.0001 14.6465 9.83302 14.832 9.55482ZM16 13.0001C16.5523 13.0001 17 12.5524 17 12.0001C17 11.4478 16.5523 11.0001 16 11.0001C15.4477 11.0001 15 11.4478 15 12.0001C15 12.5524 15.4477 13.0001 16 13.0001Z" fill="#0D0D12"/>
</svg>
