<svg width="24" height="24" viewBox="0 0 24 24" fill="none" xmlns="http://www.w3.org/2000/svg">
<path fill-rule="evenodd" clip-rule="evenodd" d="M8.92708 8.54142C9.29221 7.63812 9.71271 7.00915 10.192 6.60785C10.6494 6.2248 11.2178 6 12 6C13.8054 6 15 7.41069 15 8.95833C15 10.0229 14.1599 10.8363 12.5621 11.5879C11.7056 11.9908 11.0103 12.7635 10.7999 13.7626L10.6881 14.294C10.5743 14.8344 10.9202 15.3648 11.4606 15.4785C12.0011 15.5923 12.5314 15.2464 12.6452 14.706L12.757 14.1746C12.8233 13.86 13.0551 13.5662 13.4134 13.3977C15.0589 12.6237 17 11.3237 17 8.95833C17 6.39263 14.9945 4 12 4C10.7821 4 9.7505 4.36895 8.90796 5.07444C8.08721 5.76169 7.50771 6.71605 7.07284 7.79191C6.86586 8.30395 7.11317 8.88682 7.62521 9.09379C8.13724 9.30076 8.72011 9.05346 8.92708 8.54142ZM11.4999 19.75C12.1903 19.75 12.7499 19.1904 12.7499 18.5C12.7499 17.8096 12.1903 17.25 11.4999 17.25C10.8096 17.25 10.2499 17.8096 10.2499 18.5C10.2499 19.1904 10.8096 19.75 11.4999 19.75Z" fill="#0D0D12"/>
</svg>
