<svg width="24" height="24" viewBox="0 0 24 24" fill="none" xmlns="http://www.w3.org/2000/svg">
<path d="M14.0962 14.0962C16.6346 11.5578 16.6346 7.44221 14.0962 4.90381C11.5578 2.3654 7.44221 2.3654 4.90381 4.90381C2.3654 7.44221 2.3654 11.5578 4.90381 14.0962C7.44221 16.6346 11.5578 16.6346 14.0962 14.0962Z" fill="#0D0D12"/>
<path d="M16.3751 14.9608C16.2693 14.8551 16.0951 14.8655 15.9985 14.9797C15.8447 15.1617 15.682 15.3388 15.5104 15.5104C15.3388 15.682 15.1617 15.8447 14.9797 15.9985C14.8655 16.0951 14.8551 16.2693 14.9608 16.3751L15.8202 17.2344C15.8815 17.2957 15.9051 17.3841 15.893 17.4699C15.8295 17.922 15.9717 18.3975 16.3194 18.7452L18.1331 20.559C18.7212 21.147 19.6746 21.147 20.2627 20.559L20.559 20.2627C21.147 19.6746 21.147 18.7212 20.559 18.1331L18.7452 16.3194C18.3975 15.9717 17.922 15.8295 17.4699 15.893C17.3841 15.9051 17.2957 15.8815 17.2344 15.8202L16.3751 14.9608Z" fill="#0D0D12"/>
</svg>
